<svg xmlns="http://www.w3.org/2000/svg" version="1.1" xmlns:xlink="http://www.w3.org/1999/xlink" width="1500" height="66" viewBox="0 0 1500 66"><svg xml:space="preserve" width="1500" height="66" data-version="2" data-id="lg_Gxjgqcq58Q96EaH7kJ" viewBox="0 0 441 66" x="0" y="0"><rect width="100%" height="100%" fill="transparent"></rect><path fill="none" stroke="#673ab7" stroke-width="2" d="M102.82 54.736V9.456h6.27v45.28Zm29.7.79q-5.02 0-8.42-1.95-3.4-1.94-5.15-6-1.74-4.06-1.74-10.2t1.74-10.16q1.75-4.03 5.22-6.01 3.46-1.98 8.55-1.98 3.56 0 6.17.92 2.6.93 4.32 2.71 1.72 1.78 2.54 4.29.83 2.51.83 5.74h-5.88q0-3.03-.82-4.98-.83-1.95-2.61-2.91-1.78-.95-4.69-.95-2.9 0-5.01 1.28-2.11 1.29-3.24 4.06-1.12 2.78-1.12 7.33v1.39q0 4.29 1.09 7.12 1.09 2.84 3.2 4.16 2.11 1.32 5.15 1.32 2.97 0 4.78-1.05 1.82-1.06 2.64-3.04.83-1.98.83-4.75h5.68q0 2.9-.83 5.41-.82 2.51-2.54 4.36-1.72 1.84-4.36 2.87-2.64 1.02-6.33 1.02Zm34.91 0q-5.15 0-8.68-1.95-3.53-1.94-5.34-5.97-1.82-4.03-1.82-10.23 0-6.27 1.82-10.26 1.81-4 5.38-5.94 3.56-1.95 8.91-1.95 4.88 0 8.18 1.88t4.98 5.61q1.69 3.73 1.69 9.34v2.77H157.6q.13 4.16 1.22 6.83 1.09 2.68 3.27 3.9 2.17 1.22 5.47 1.22 2.25 0 3.93-.56 1.68-.56 2.84-1.62 1.15-1.06 1.75-2.51.59-1.45.66-3.17h5.67q-.06 2.78-1.05 5.12-.99 2.34-2.91 3.99-1.91 1.65-4.68 2.58-2.77.92-6.34.92Zm-9.7-21.05h18.81q0-2.91-.66-4.89-.66-1.98-1.88-3.23-1.22-1.26-2.84-1.82-1.62-.56-3.66-.56-3.04 0-5.15 1.12-2.11 1.13-3.23 3.44-1.13 2.31-1.39 5.94Zm33.13 20.26V9.456h23.37q3.89 0 6.73 1.35 2.84 1.36 4.39 3.8 1.55 2.44 1.55 5.81 0 2.57-.93 4.75-.92 2.18-2.57 3.63-1.65 1.45-3.76 2.18v.26q2.37.53 4.29 1.92 1.91 1.38 3.07 3.66 1.15 2.28 1.15 5.58 0 4.42-1.85 7.12-1.84 2.71-4.95 3.96-3.1 1.26-7.12 1.26Zm6.27-5.41h17.03q3.37 0 5.48-1.75 2.11-1.75 2.11-5.84 0-2.51-.92-4.2-.93-1.68-2.71-2.5-1.78-.83-4.49-.83h-16.5Zm0-20.46h15.91q2.24 0 3.89-.9 1.65-.89 2.61-2.5.96-1.62.96-3.67 0-3.56-1.92-5.24-1.91-1.69-5.08-1.69h-16.37Zm38.68 25.87v-34.72h4.68l.53 5.74h.46q.53-1.65 1.46-3.13.92-1.49 2.5-2.44 1.59-.96 3.9-.96.99 0 1.81.16.83.17 1.22.37v5.34h-2.17q-2.25 0-3.87.76-1.61.76-2.67 2.15-1.05 1.38-1.55 3.3-.49 1.91-.49 4.09v19.34Zm35.11.79q-5.15 0-8.68-1.95-3.53-1.94-5.35-5.97-1.81-4.03-1.81-10.23 0-6.27 1.81-10.26 1.82-4 5.38-5.94 3.57-1.95 8.91-1.95 4.89 0 8.19 1.88t4.98 5.61q1.68 3.73 1.68 9.34v2.77h-24.94q.13 4.16 1.22 6.83 1.09 2.68 3.26 3.9 2.18 1.22 5.48 1.22 2.25 0 3.93-.56 1.68-.56 2.84-1.62 1.15-1.06 1.75-2.51.59-1.45.66-3.17h5.67q-.06 2.78-1.05 5.12-.99 2.34-2.91 3.99-1.91 1.65-4.68 2.58-2.78.92-6.34.92Zm-9.7-21.05h18.81q0-2.91-.66-4.89-.66-1.98-1.88-3.23-1.22-1.26-2.84-1.82-1.62-.56-3.66-.56-3.04 0-5.15 1.12-2.11 1.13-3.24 3.44-1.12 2.31-1.38 5.94Zm40.72 21.05q-1.91 0-3.83-.46-1.91-.46-3.56-1.52-1.65-1.06-2.64-2.94-.99-1.88-.99-4.72 0-3.56 1.71-5.87 1.72-2.31 4.79-3.6 3.07-1.28 7.29-1.78 4.23-.49 9.18-.49v-3.96q0-1.92-.66-3.3-.66-1.39-2.35-2.15-1.68-.76-4.78-.76-2.97 0-4.72.76-1.75.76-2.44 1.95-.7 1.19-.7 2.64v.99h-5.61q-.06-.33-.06-.66v-.79q0-3.17 1.75-5.32 1.75-2.14 4.91-3.23 3.17-1.09 7.26-1.09 4.36 0 7.3 1.25 2.93 1.26 4.42 3.57 1.48 2.31 1.48 5.54v18.81q0 1.26.6 1.75.59.5 1.45.5h2.57v3.82q-.92.4-2.04.7-1.12.29-2.58.29-1.71 0-2.83-.69-1.13-.69-1.72-1.91-.59-1.22-.79-2.74h-.46q-1.19 1.65-3.01 2.87-1.81 1.22-4.06 1.88-2.24.66-4.88.66Zm1.45-4.88q2.11 0 3.99-.66 1.89-.66 3.34-1.89 1.45-1.22 2.31-2.93.86-1.72.86-3.76v-2.91q-5.35 0-9.11.6-3.76.59-5.78 2.11-2.01 1.52-2.01 4.29 0 1.78.79 2.9.79 1.12 2.25 1.68 1.45.57 3.36.57Zm25.81 4.09V7.016h5.81v29.83l14.71-16.83h6.87l-11.88 13.47 12.54 21.25h-6.67l-9.63-16.96-5.94 6v10.96Zm45.6.79q-5.14 0-8.68-1.95-3.53-1.94-5.34-5.97-1.82-4.03-1.82-10.23 0-6.27 1.82-10.26 1.81-4 5.38-5.94 3.56-1.95 8.91-1.95 4.88 0 8.18 1.88t4.98 5.61q1.69 3.73 1.69 9.34v2.77h-24.95q.13 4.16 1.22 6.83 1.09 2.68 3.27 3.9 2.18 1.22 5.48 1.22 2.24 0 3.92-.56 1.69-.56 2.84-1.62 1.16-1.06 1.75-2.51.59-1.45.66-3.17h5.68q-.07 2.78-1.06 5.12-.99 2.34-2.9 3.99-1.92 1.65-4.69 2.58-2.77.92-6.34.92Zm-9.7-21.05h18.81q0-2.91-.66-4.89-.66-1.98-1.88-3.23-1.22-1.26-2.84-1.82-1.61-.56-3.66-.56-3.04 0-5.15 1.12-2.11 1.13-3.23 3.44t-1.39 5.94Zm32.01 20.26v-34.72h4.69l.53 5.74h.46q.53-1.65 1.45-3.13.92-1.49 2.51-2.44 1.58-.96 3.89-.96.99 0 1.82.16.82.17 1.22.37v5.34h-2.18q-2.24 0-3.86.76-1.62.76-2.67 2.15-1.06 1.38-1.56 3.3-.49 1.91-.49 4.09v19.34Zm23.39.36q-.87 0-1.74-.21t-1.62-.69q-.75-.48-1.2-1.34-.45-.85-.45-2.14 0-1.62.78-2.67.78-1.05 2.17-1.64 1.4-.58 3.32-.81 1.92-.22 4.17-.22v-1.8q0-.87-.3-1.5t-1.07-.98q-.76-.34-2.17-.34-1.35 0-2.15.34-.79.35-1.11.89-.31.54-.31 1.2v.45h-2.55q-.03-.15-.03-.3v-.36q0-1.44.79-2.42.8-.97 2.24-1.47 1.44-.49 3.3-.49 1.98 0 3.31.57 1.34.57 2.01 1.62.68 1.05.68 2.52v8.55q0 .57.27.79.27.23.66.23h1.17v1.74q-.42.18-.93.31-.51.14-1.17.14-.78 0-1.29-.32-.51-.31-.78-.87-.27-.55-.36-1.24h-.21q-.54.75-1.37 1.3-.82.56-1.84.86-1.02.3-2.22.3Zm.66-2.22q.96 0 1.81-.3.86-.3 1.52-.86.66-.55 1.05-1.33t.39-1.71v-1.32q-2.43 0-4.14.27-1.71.27-2.63.96-.91.69-.91 1.95 0 .81.36 1.32t1.02.76q.66.26 1.53.26Zm11.73-16.89v-2.94h2.64v2.94Zm0 18.75v-15.78h2.64v15.78Z" paint-order="stroke"></path><path fill="#0d6efd" d="M102.82 54.736V9.456h6.27v45.28Z" paint-order="stroke"></path><rect width="6.27" height="45.28" x="-3.13" y="-22.64" fill="none" rx="0" ry="0" transform="translate(106.45 32.6)"></rect><path fill="#0d6efd" d="M132.52 55.526q-5.02 0-8.42-1.95-3.4-1.94-5.15-6-1.74-4.06-1.74-10.2t1.74-10.16q1.75-4.03 5.22-6.01 3.46-1.98 8.55-1.98 3.56 0 6.17.92 2.6.93 4.32 2.71 1.72 1.78 2.54 4.29.83 2.51.83 5.74h-5.88q0-3.03-.82-4.98-.83-1.95-2.61-2.91-1.78-.95-4.69-.95-2.9 0-5.01 1.28-2.11 1.29-3.24 4.06-1.12 2.78-1.12 7.33v1.39q0 4.29 1.09 7.12 1.09 2.84 3.2 4.16 2.11 1.32 5.15 1.32 2.97 0 4.78-1.05 1.82-1.06 2.64-3.04.83-1.98.83-4.75h5.68q0 2.9-.83 5.41-.82 2.51-2.54 4.36-1.72 1.84-4.36 2.87-2.64 1.02-6.33 1.02" paint-order="stroke"></path><rect width="29.37" height="36.3" x="-14.69" y="-18.15" fill="none" rx="0" ry="0" transform="translate(132.4 37.88)"></rect><path fill="#0d6efd" d="M167.43 55.526q-5.15 0-8.68-1.95-3.53-1.94-5.34-5.97-1.82-4.03-1.82-10.23 0-6.27 1.82-10.26 1.81-4 5.38-5.94 3.56-1.95 8.91-1.95 4.88 0 8.18 1.88t4.98 5.61q1.69 3.73 1.69 9.34v2.77H157.6q.13 4.16 1.22 6.83 1.09 2.68 3.27 3.9 2.17 1.22 5.47 1.22 2.25 0 3.93-.56 1.68-.56 2.84-1.62 1.15-1.06 1.75-2.51.59-1.45.66-3.17h5.67q-.06 2.78-1.05 5.12-.99 2.34-2.91 3.99-1.91 1.65-4.68 2.58-2.77.92-6.34.92m-9.7-21.05h18.81q0-2.91-.66-4.89-.66-1.98-1.88-3.23-1.22-1.26-2.84-1.82-1.62-.56-3.66-.56-3.04 0-5.15 1.12-2.11 1.13-3.23 3.44-1.13 2.31-1.39 5.94" paint-order="stroke"></path><rect width="30.96" height="36.3" x="-15.48" y="-18.15" fill="none" rx="0" ry="0" transform="translate(167.57 37.88)"></rect><path fill="#0d6efd" d="M190.86 54.736V9.456h23.37q3.89 0 6.73 1.35 2.84 1.36 4.39 3.8 1.55 2.44 1.55 5.81 0 2.57-.93 4.75-.92 2.18-2.57 3.63-1.65 1.45-3.76 2.18v.26q2.37.53 4.29 1.92 1.91 1.38 3.07 3.66 1.15 2.28 1.15 5.58 0 4.42-1.85 7.12-1.84 2.71-4.95 3.96-3.1 1.26-7.12 1.26Zm6.27-5.41h17.03q3.37 0 5.48-1.75 2.11-1.75 2.11-5.84 0-2.51-.92-4.2-.93-1.68-2.71-2.5-1.78-.83-4.49-.83h-16.5Zm0-20.46h15.91q2.24 0 3.89-.9 1.65-.89 2.61-2.5.96-1.62.96-3.67 0-3.56-1.92-5.24-1.91-1.69-5.08-1.69h-16.37Z" paint-order="stroke"></path><rect width="37.29" height="45.28" x="-18.64" y="-22.64" fill="none" rx="0" ry="0" transform="translate(210 32.6)"></rect><path fill="#0d6efd" d="M235.81 54.736v-34.72h4.68l.53 5.74h.46q.53-1.65 1.46-3.13.92-1.49 2.5-2.44 1.59-.96 3.9-.96.99 0 1.81.16.83.17 1.22.37v5.34h-2.17q-2.25 0-3.87.76-1.61.76-2.67 2.15-1.05 1.38-1.55 3.3-.49 1.91-.49 4.09v19.34Z" paint-order="stroke"></path><rect width="16.56" height="35.51" x="-8.28" y="-17.75" fill="none" rx="0" ry="0" transform="translate(244.59 37.48)"></rect><path fill="#0d6efd" d="M270.92 55.526q-5.15 0-8.68-1.95-3.53-1.94-5.35-5.97-1.81-4.03-1.81-10.23 0-6.27 1.81-10.26 1.82-4 5.38-5.94 3.57-1.95 8.91-1.95 4.89 0 8.19 1.88t4.98 5.61q1.68 3.73 1.68 9.34v2.77h-24.94q.13 4.16 1.22 6.83 1.09 2.68 3.26 3.9 2.18 1.22 5.48 1.22 2.25 0 3.93-.56 1.68-.56 2.84-1.62 1.15-1.06 1.75-2.51.59-1.45.66-3.17h5.67q-.06 2.78-1.05 5.12-.99 2.34-2.91 3.99-1.91 1.65-4.68 2.58-2.78.92-6.34.92m-9.7-21.05h18.81q0-2.91-.66-4.89-.66-1.98-1.88-3.23-1.22-1.26-2.84-1.82-1.62-.56-3.66-.56-3.04 0-5.15 1.12-2.11 1.13-3.24 3.44-1.12 2.31-1.38 5.94" paint-order="stroke"></path><rect width="30.95" height="36.3" x="-15.47" y="-18.15" fill="none" rx="0" ry="0" transform="translate(271.06 37.88)"></rect><path fill="#0d6efd" d="M301.94 55.526q-1.91 0-3.83-.46-1.91-.46-3.56-1.52-1.65-1.06-2.64-2.94-.99-1.88-.99-4.72 0-3.56 1.71-5.87 1.72-2.31 4.79-3.6 3.07-1.28 7.29-1.78 4.23-.49 9.18-.49v-3.96q0-1.92-.66-3.3-.66-1.39-2.35-2.15-1.68-.76-4.78-.76-2.97 0-4.72.76-1.75.76-2.44 1.95-.7 1.19-.7 2.64v.99h-5.61q-.06-.33-.06-.66v-.79q0-3.17 1.75-5.32 1.75-2.14 4.91-3.23 3.17-1.09 7.26-1.09 4.36 0 7.3 1.25 2.93 1.26 4.42 3.57 1.48 2.31 1.48 5.54v18.81q0 1.26.6 1.75.59.5 1.45.5h2.57v3.82q-.92.4-2.04.7-1.12.29-2.58.29-1.71 0-2.83-.69-1.13-.69-1.72-1.91-.59-1.22-.79-2.74h-.46q-1.19 1.65-3.01 2.87-1.81 1.22-4.06 1.88-2.24.66-4.88.66m1.45-4.88q2.11 0 3.99-.66 1.89-.66 3.34-1.89 1.45-1.22 2.31-2.93.86-1.72.86-3.76v-2.91q-5.35 0-9.11.6-3.76.59-5.78 2.11-2.01 1.52-2.01 4.29 0 1.78.79 2.9.79 1.12 2.25 1.68 1.45.57 3.36.57" paint-order="stroke"></path><rect width="33.39" height="36.3" x="-16.7" y="-18.15" fill="none" rx="0" ry="0" transform="translate(308.12 37.88)"></rect><path fill="#0d6efd" d="M329.2 54.736V7.016h5.81v29.83l14.71-16.83h6.87l-11.88 13.47 12.54 21.25h-6.67l-9.63-16.96-5.94 6v10.96Z" paint-order="stroke"></path><rect width="28.05" height="47.72" x="-14.03" y="-23.86" fill="none" rx="0" ry="0" transform="translate(343.73 31.38)"></rect><path fill="#0d6efd" d="M374.8 55.526q-5.14 0-8.68-1.95-3.53-1.94-5.34-5.97-1.82-4.03-1.82-10.23 0-6.27 1.82-10.26 1.81-4 5.38-5.94 3.56-1.95 8.91-1.95 4.88 0 8.18 1.88t4.98 5.61q1.69 3.73 1.69 9.34v2.77h-24.95q.13 4.16 1.22 6.83 1.09 2.68 3.27 3.9 2.18 1.22 5.48 1.22 2.24 0 3.92-.56 1.69-.56 2.84-1.62 1.16-1.06 1.75-2.51.59-1.45.66-3.17h5.68q-.07 2.78-1.06 5.12-.99 2.34-2.9 3.99-1.92 1.65-4.69 2.58-2.77.92-6.34.92m-9.7-21.05h18.81q0-2.91-.66-4.89-.66-1.98-1.88-3.23-1.22-1.26-2.84-1.82-1.61-.56-3.66-.56-3.04 0-5.15 1.12-2.11 1.13-3.23 3.44t-1.39 5.94" paint-order="stroke"></path><rect width="30.96" height="36.3" x="-15.48" y="-18.15" fill="none" rx="0" ry="0" transform="translate(374.94 37.88)"></rect><path fill="#0d6efd" d="M397.11 54.736v-34.72h4.69l.53 5.74h.46q.53-1.65 1.45-3.13.92-1.49 2.51-2.44 1.58-.96 3.89-.96.99 0 1.82.16.82.17 1.22.37v5.34h-2.18q-2.24 0-3.86.76-1.62.76-2.67 2.15-1.06 1.38-1.56 3.3-.49 1.91-.49 4.09v19.34Z" paint-order="stroke"></path><rect width="16.57" height="35.51" x="-8.29" y="-17.75" fill="none" rx="0" ry="0" transform="translate(405.9 37.48)"></rect><path fill="#0d6efd" d="M420.5 55.096q-.87 0-1.74-.21t-1.62-.69q-.75-.48-1.2-1.34-.45-.85-.45-2.14 0-1.62.78-2.67.78-1.05 2.17-1.64 1.4-.58 3.32-.81 1.92-.22 4.17-.22v-1.8q0-.87-.3-1.5t-1.07-.98q-.76-.34-2.17-.34-1.35 0-2.15.34-.79.35-1.11.89-.31.54-.31 1.2v.45h-2.55q-.03-.15-.03-.3v-.36q0-1.44.79-2.42.8-.97 2.24-1.47 1.44-.49 3.3-.49 1.98 0 3.31.57 1.34.57 2.01 1.62.68 1.05.68 2.52v8.55q0 .57.27.79.27.23.66.23h1.17v1.74q-.42.18-.93.31-.51.14-1.17.14-.78 0-1.29-.32-.51-.31-.78-.87-.27-.55-.36-1.24h-.21q-.54.75-1.37 1.3-.82.56-1.84.86-1.02.3-2.22.3m.66-2.22q.96 0 1.81-.3.86-.3 1.52-.86.66-.55 1.05-1.33t.39-1.71v-1.32q-2.43 0-4.14.27-1.71.27-2.63.96-.91.69-.91 1.95 0 .81.36 1.32t1.02.76q.66.26 1.53.26" paint-order="stroke"></path><rect width="15.18" height="16.5" x="-7.59" y="-8.25" fill="none" rx="0" ry="0" transform="translate(423.58 47.35)"></rect><path fill="#0d6efd" d="M432.89 35.986v-2.94h2.64v2.94Zm0 18.75v-15.78h2.64v15.78Z" paint-order="stroke"></path><rect width="2.64" height="21.69" x="-1.32" y="-10.85" fill="none" rx="0" ry="0" transform="translate(434.71 44.4)"></rect><path fill="#0d6efd" d="M50.608 13.093H6.11l22.248 15.575z"></path><path fill="#0d6efd" d="M28.36 32.204a1.581 1.581 0 0 1-.913-.288L4.47 15.833v30.704a1.593 1.593 0 0 0 1.593 1.593h44.593a1.593 1.593 0 0 0 1.592-1.593V15.833L29.272 31.916a1.581 1.581 0 0 1-.913.288m55.618-.984a1.593 1.593 0 0 0-.346-1.736l-6.369-6.37a1.592 1.592 0 1 0-2.252 2.251l3.652 3.654h-12.08a1.593 1.593 0 1 0 0 3.185h12.081l-3.652 3.652a1.592 1.592 0 1 0 2.252 2.252l6.369-6.37a1.57 1.57 0 0 0 .346-.518M66.582 16.278a1.588 1.588 0 0 0 1.126-.467L77.73 5.79v5.71a1.593 1.593 0 1 0 3.185 0V1.944A1.597 1.597 0 0 0 79.322.352h-9.007a1.593 1.593 0 1 0 0 3.185h5.163L65.456 13.559a1.591 1.591 0 0 0 1.126 2.719m12.74 35.585a1.593 1.593 0 0 0-1.592 1.592v5.041l-9.45-9.874a1.594 1.594 0 0 0-2.302 2.202l9.615 10.047h-5.278a1.593 1.593 0 1 0 0 3.185h9.007a1.575 1.575 0 0 0 .602-.121c.1-.042.182-.113.273-.174.075-.05.159-.081.227-.146l.01-.015c.107-.103.182-.235.256-.366.03-.05.075-.092.1-.145.018-.043.015-.097.031-.143a1.62 1.62 0 0 0 .094-.467c-.003-.005 0-.01 0-.016v-9.008a1.593 1.593 0 0 0-1.593-1.592"></path></svg></svg>